{
    "asset" : {
        "generator" : "Khronos glTF Blender I/O v1.8.19",
        "version" : "2.0"
    },
    "scene" : 0,
    "scenes" : [
        {
            "name" : "Scene",
            "nodes" : [
                0
            ]
        }
    ],
    "nodes" : [
        {
            "mesh" : 0,
            "name" : "Cube",
            "scale" : [
                10,
                1,
                10
            ]
        }
    ],
    "materials" : [
        {
            "doubleSided" : true,
            "name" : "Material",
            "pbrMetallicRoughness" : {
                "metallicFactor" : 0,
                "roughnessFactor" : 0.4000000059604645
            }
        },
        {
            "doubleSided" : true,
            "name" : "Material.001",
            "pbrMetallicRoughness" : {
                "metallicFactor" : 0.0260869562625885,
                "roughnessFactor" : 0.5
            }
        },
        {
            "doubleSided" : true,
            "name" : "Material.002",
            "pbrMetallicRoughness" : {
                "metallicFactor" : 0,
                "roughnessFactor" : 0.5
            }
        },
        {
            "doubleSided" : true,
            "name" : "Material.003",
            "pbrMetallicRoughness" : {
                "metallicFactor" : 0,
                "roughnessFactor" : 0.5
            }
        },
        {
            "doubleSided" : true,
            "name" : "Material.004",
            "pbrMetallicRoughness" : {
                "metallicFactor" : 0,
                "roughnessFactor" : 0.5
            }
        }
    ],
    "meshes" : [
        {
            "name" : "Cube",
            "primitives" : [
                {
                    "attributes" : {
                        "POSITION" : 0,
                        "NORMAL" : 1,
                        "TEXCOORD_0" : 2
                    },
                    "indices" : 3,
                    "material" : 0
                },
                {
                    "attributes" : {
                        "POSITION" : 4,
                        "NORMAL" : 5,
                        "TEXCOORD_0" : 6
                    },
                    "indices" : 7,
                    "material" : 1
                },
                {
                    "attributes" : {
                        "POSITION" : 8,
                        "NORMAL" : 9,
                        "TEXCOORD_0" : 10
                    },
                    "indices" : 11,
                    "material" : 2
                },
                {
                    "attributes" : {
                        "POSITION" : 12,
                        "NORMAL" : 13,
                        "TEXCOORD_0" : 14
                    },
                    "indices" : 15,
                    "material" : 3
                },
                {
                    "attributes" : {
                        "POSITION" : 16,
                        "NORMAL" : 17,
                        "TEXCOORD_0" : 18
                    },
                    "indices" : 19,
                    "material" : 4
                }
            ]
        }
    ],
    "accessors" : [
        {
            "bufferView" : 0,
            "componentType" : 5126,
            "count" : 117,
            "max" : [
                1,
                1.0655219554901123,
                1.8174891471862793
            ],
            "min" : [
                -1.1355947256088257,
                -1.8968777656555176,
                -1.1090800762176514
            ],
            "type" : "VEC3"
        },
        {
            "bufferView" : 1,
            "componentType" : 5126,
            "count" : 117,
            "type" : "VEC3"
        },
        {
            "bufferView" : 2,
            "componentType" : 5126,
            "count" : 117,
            "type" : "VEC2"
        },
        {
            "bufferView" : 3,
            "componentType" : 5123,
            "count" : 198,
            "type" : "SCALAR"
        },
        {
            "bufferView" : 4,
            "componentType" : 5126,
            "count" : 24,
            "max" : [
                1,
                4.842916965484619,
                1.8174891471862793
            ],
            "min" : [
                -1,
                -1.8797836303710938,
                -1
            ],
            "type" : "VEC3"
        },
        {
            "bufferView" : 5,
            "componentType" : 5126,
            "count" : 24,
            "type" : "VEC3"
        },
        {
            "bufferView" : 6,
            "componentType" : 5126,
            "count" : 24,
            "type" : "VEC2"
        },
        {
            "bufferView" : 7,
            "componentType" : 5123,
            "count" : 36,
            "type" : "SCALAR"
        },
        {
            "bufferView" : 8,
            "componentType" : 5126,
            "count" : 177,
            "max" : [
                0.9999009966850281,
                1.2777436971664429,
                1.409944772720337
            ],
            "min" : [
                -1.008772850036621,
                -1.000000238418579,
                -0.7411261796951294
            ],
            "type" : "VEC3"
        },
        {
            "bufferView" : 9,
            "componentType" : 5126,
            "count" : 177,
            "type" : "VEC3"
        },
        {
            "bufferView" : 10,
            "componentType" : 5126,
            "count" : 177,
            "type" : "VEC2"
        },
        {
            "bufferView" : 11,
            "componentType" : 5123,
            "count" : 285,
            "type" : "SCALAR"
        },
        {
            "bufferView" : 12,
            "componentType" : 5126,
            "count" : 51,
            "max" : [
                1,
                4.842916965484619,
                1.8174891471862793
            ],
            "min" : [
                -1.1355947256088257,
                -1.8968777656555176,
                -1.1090800762176514
            ],
            "type" : "VEC3"
        },
        {
            "bufferView" : 13,
            "componentType" : 5126,
            "count" : 51,
            "type" : "VEC3"
        },
        {
            "bufferView" : 14,
            "componentType" : 5126,
            "count" : 51,
            "type" : "VEC2"
        },
        {
            "bufferView" : 15,
            "componentType" : 5123,
            "count" : 90,
            "type" : "SCALAR"
        },
        {
            "bufferView" : 16,
            "componentType" : 5126,
            "count" : 80,
            "max" : [
                0.9999010562896729,
                1.2777433395385742,
                1.409944772720337
            ],
            "min" : [
                -1.0084271430969238,
                -1.0688847303390503,
                -0.6973841190338135
            ],
            "type" : "VEC3"
        },
        {
            "bufferView" : 17,
            "componentType" : 5126,
            "count" : 80,
            "type" : "VEC3"
        },
        {
            "bufferView" : 18,
            "componentType" : 5126,
            "count" : 80,
            "type" : "VEC2"
        },
        {
            "bufferView" : 19,
            "componentType" : 5123,
            "count" : 132,
            "type" : "SCALAR"
        }
    ],
    "bufferViews" : [
        {
            "buffer" : 0,
            "byteLength" : 1404,
            "byteOffset" : 0
        },
        {
            "buffer" : 0,
            "byteLength" : 1404,
            "byteOffset" : 1404
        },
        {
            "buffer" : 0,
            "byteLength" : 936,
            "byteOffset" : 2808
        },
        {
            "buffer" : 0,
            "byteLength" : 396,
            "byteOffset" : 3744
        },
        {
            "buffer" : 0,
            "byteLength" : 288,
            "byteOffset" : 4140
        },
        {
            "buffer" : 0,
            "byteLength" : 288,
            "byteOffset" : 4428
        },
        {
            "buffer" : 0,
            "byteLength" : 192,
            "byteOffset" : 4716
        },
        {
            "buffer" : 0,
            "byteLength" : 72,
            "byteOffset" : 4908
        },
        {
            "buffer" : 0,
            "byteLength" : 2124,
            "byteOffset" : 4980
        },
        {
            "buffer" : 0,
            "byteLength" : 2124,
            "byteOffset" : 7104
        },
        {
            "buffer" : 0,
            "byteLength" : 1416,
            "byteOffset" : 9228
        },
        {
            "buffer" : 0,
            "byteLength" : 570,
            "byteOffset" : 10644
        },
        {
            "buffer" : 0,
            "byteLength" : 612,
            "byteOffset" : 11216
        },
        {
            "buffer" : 0,
            "byteLength" : 612,
            "byteOffset" : 11828
        },
        {
            "buffer" : 0,
            "byteLength" : 408,
            "byteOffset" : 12440
        },
        {
            "buffer" : 0,
            "byteLength" : 180,
            "byteOffset" : 12848
        },
        {
            "buffer" : 0,
            "byteLength" : 960,
            "byteOffset" : 13028
        },
        {
            "buffer" : 0,
            "byteLength" : 960,
            "byteOffset" : 13988
        },
        {
            "buffer" : 0,
            "byteLength" : 640,
            "byteOffset" : 14948
        },
        {
            "buffer" : 0,
            "byteLength" : 264,
            "byteOffset" : 15588
        }
    ],
    "buffers" : [
        {
            "byteLength" : 15852,
            "uri" : "data:application/octet-stream;base64,"
        }
    ]
}
